0
SECTION
2
HEADER
9
$INSUNITS
70
4
9
$ACADVER
1
AC1014
9
$HANDSEED
5
FFFF
0
ENDSEC
0
SECTION
2
TABLES
0
TABLE
2
VPORT
5
8
100
AcDbSymbolTable
0
ENDTAB
0
TABLE
2
LTYPE
5
5
100
AcDbSymbolTable
0
LTYPE
5
14
100
AcDbSymbolTableRecord
100
AcDbLinetypeTableRecord
2
BYBLOCK
70
0
0
LTYPE
5
15
100
AcDbSymbolTableRecord
100
AcDbLinetypeTableRecord
2
BYLAYER
70
0
0
LTYPE
5
16
100
AcDbSymbolTableRecord
100
AcDbLinetypeTableRecord
2
DASHED
70
0
3
Dashed __ __ __ __ __ __ __ __ __ __ __ __ __ _
72
65
73
2
40
0.75
49
0.5
74
0
49
-0.25
74
0
0
ENDTAB
0
TABLE
2
LAYER
5
2
100
AcDbSymbolTable
70
2
0
LAYER
5
50
100
AcDbSymbolTableRecord
100
AcDbLayerTableRecord
2
0
70
0
62
7
6
CONTINUOUS
0
ENDTAB
0
TABLE
2
STYLE
5
3
100
AcDbSymbolTable
70
1
0
STYLE
5
11
100
AcDbSymbolTableRecord
100
AcDbTextStyleTableRecord
2
STANDARD
70
0
0
ENDTAB
0
TABLE
2
VIEW
5
6
100
AcDbSymbolTable
70
0
0
ENDTAB
0
TABLE
2
UCS
5
7
100
AcDbSymbolTable
70
0
0
ENDTAB
0
TABLE
2
APPID
5
9
100
AcDbSymbolTable
70
2
0
APPID
5
12
100
AcDbSymbolTableRecord
100
AcDbRegAppTableRecord
2
ACAD
70
0
0
ENDTAB
0
TABLE
2
DIMSTYLE
5
A
100
AcDbSymbolTable
70
1
0
ENDTAB
0
TABLE
2
BLOCK_RECORD
5
1
100
AcDbSymbolTable
70
1
0
BLOCK_RECORD
5
1F
100
AcDbSymbolTableRecord
100
AcDbBlockTableRecord
2
*MODEL_SPACE
0
BLOCK_RECORD
5
1B
100
AcDbSymbolTableRecord
100
AcDbBlockTableRecord
2
*PAPER_SPACE
0
ENDTAB
0
ENDSEC
0
SECTION
2
BLOCKS
0
BLOCK
5
20
100
AcDbEntity
100
AcDbBlockBegin
2
*MODEL_SPACE
0
ENDBLK
5
21
100
AcDbEntity
100
AcDbBlockEnd
0
BLOCK
5
1C
100
AcDbEntity
100
AcDbBlockBegin
2
*PAPER_SPACE
0
ENDBLK
5
1D
100
AcDbEntity
100
AcDbBlockEnd
0
ENDSEC
0
SECTION
2
ENTITIES
0
LWPOLYLINE
5
100
100
AcDbEntity
8
0
100
AcDbPolyline
90
36
70
1
43
0.0
10
-82.38008148380429
20
1069.0986602097021
10
-82.38008148380429
20
946.842160209702
10
-82.366638323543953
20
946.842160209702
10
-82.366638323543953
20
941.76216020970185
10
-81.746954000848433
20
941.76216020970185
42
0.00012401278510117754
10
-81.744431537462617
20
941.75198564939069
42
0.27786354056830098
10
-66.327972003548155
20
926.33310856679623
42
1.4619290812418463e-05
10
-66.326772683662853
20
926.33281075482955
10
-66.32797200354814
20
925.87624621943849
10
-66.32797200354814
20
925.7030102097018
10
-61.252004426277168
20
925.7030102097018
10
-61.252014893650241
20
925.69031020970192
10
61.020351926041663
20
925.69031020970192
10
61.020341458668597
20
925.7030102097018
10
66.096309035939569
20
925.7030102097018
10
66.096309035939569
20
925.87624621943849
10
66.095109716054296
20
926.33281075482955
42
1.4619182594195887e-05
10
66.096309035971444
20
926.33310856680419
42
0.27786354056788176
10
81.512768569854074
20
941.75198564939046
42
0.00012401279002504642
10
81.515291033237261
20
941.76216020969127
10
82.134975355935438
20
941.76216020970185
10
82.134975355935438
20
946.842160209702
10
82.148418516195747
20
946.842160209702
10
82.148418516195747
20
1069.0986602097021
10
82.13497535593541
20
1069.0986602097021
10
82.13497535593541
20
1074.178660209702
10
81.51529103323989
20
1074.178660209702
42
0.00012401278532498978
10
81.512768569854046
20
1074.1888347700133
42
0.27787928865165701
10
66.095109716054296
20
1089.6080096645742
10
66.096797459232633
20
1090.250510209702
10
-66.32846042684119
20
1090.250510209702
10
-66.326772683662853
20
1089.6080096645742
42
0.27787928865166023
10
-81.744431537462532
20
1074.1888347700135
42
0.00012401278873812617
10
-81.746954000848362
20
1074.1786602097025
10
-82.366638323543967
20
1074.178660209702
10
-82.366638323543967
20
1069.0986602097021
0
LWPOLYLINE
5
101
100
AcDbEntity
8
0
100
AcDbPolyline
90
36
70
1
43
0.0
10
-79.078081483804255
20
946.842160209702
10
-79.078081483804269
20
1069.0986602097028
42
-8.8967973632371697e-05
10
-79.078080353910991
20
1069.105010209702
10
-79.077337193603739
20
1069.105010209702
42
-0.41379667653414676
10
-61.253631483804256
20
1086.9414068799761
10
-61.253631483804952
20
1086.94215004066
42
-0.0001921186534321685
10
-61.239919211253294
20
1086.9421594113346
10
-6.4658314838043207
20
1086.9421602097018
10
-6.4658314838043154
20
1087.0056602097018
10
6.234168516195747
20
1087.0056602097018
10
6.2341685161957558
20
1086.9421602097018
10
61.008256243646635
20
1086.9421594113346
42
-0.00019211864624469536
10
61.021968516195734
20
1086.94215004066
10
61.021968516195734
20
1086.9414068799761
42
-0.41379667653413443
10
78.845674225995111
20
1069.105010209702
10
78.846417386302448
20
1069.1050102097015
42
-8.8967977376043763e-05
10
78.846418516195698
20
1069.0986602097021
10
78.846418516195698
20
946.84216020970166
42
-8.8967977376043763e-05
10
78.84641738630242
20
946.835810209702
10
78.845674225995182
20
946.83581020970178
42
-0.4045710422068714
10
61.585873295882443
20
929.00892900032989
42
-0.0079026504147034406
10
61.021968516195727
20
928.99941353942779
10
61.017624554460951
20
928.99941353942779
10
61.017625170361683
20
928.99866627033236
42
-0.00013126528759407975
10
61.008256243644723
20
928.99866100806935
10
6.2341685161957638
20
928.99866020970182
10
6.2341685161957496
20
928.93516020970185
10
-6.4658314838043127
20
928.93516020970185
10
-6.4658314838043216
20
928.99866020970182
10
-61.239919211248626
20
928.99866100806935
42
-0.0001312652837351665
10
-61.24928813797068
20
928.99866627033236
10
-61.249287522069523
20
928.99941353942779
10
-61.253631483804327
20
928.99941353942779
42
-0.0079026504147034406
10
-61.81753626349105
20
929.00892900033
42
-0.40457104220687179
10
-79.077337193603668
20
946.835810209702
10
-79.078080353910977
20
946.83581020969712
42
-8.8967973710309353e-05
0
ENDSEC
0
SECTION
2
OBJECTS
0
DICTIONARY
5
C
100
AcDbDictionary
3
ACAD_GROUP
350
D
3
ACAD_MLINESTYLE
350
17
0
DICTIONARY
5
D
100
AcDbDictionary
0
DICTIONARY
5
1A
330
C
100
AcDbDictionary
0
DICTIONARY
5
17
100
AcDbDictionary
0
ENDSEC
0
EOF
