0
SECTION
2
HEADER
9
$INSUNITS
70
4
9
$ACADVER
1
AC1014
9
$HANDSEED
5
FFFF
0
ENDSEC
0
SECTION
2
TABLES
0
TABLE
2
VPORT
5
8
100
AcDbSymbolTable
0
ENDTAB
0
TABLE
2
LTYPE
5
5
100
AcDbSymbolTable
0
LTYPE
5
14
100
AcDbSymbolTableRecord
100
AcDbLinetypeTableRecord
2
BYBLOCK
70
0
0
LTYPE
5
15
100
AcDbSymbolTableRecord
100
AcDbLinetypeTableRecord
2
BYLAYER
70
0
0
LTYPE
5
16
100
AcDbSymbolTableRecord
100
AcDbLinetypeTableRecord
2
DASHED
70
0
3
Dashed __ __ __ __ __ __ __ __ __ __ __ __ __ _
72
65
73
2
40
0.75
49
0.5
74
0
49
-0.25
74
0
0
ENDTAB
0
TABLE
2
LAYER
5
2
100
AcDbSymbolTable
70
2
0
LAYER
5
50
100
AcDbSymbolTableRecord
100
AcDbLayerTableRecord
2
0
70
0
62
7
6
CONTINUOUS
0
ENDTAB
0
TABLE
2
STYLE
5
3
100
AcDbSymbolTable
70
1
0
STYLE
5
11
100
AcDbSymbolTableRecord
100
AcDbTextStyleTableRecord
2
STANDARD
70
0
0
ENDTAB
0
TABLE
2
VIEW
5
6
100
AcDbSymbolTable
70
0
0
ENDTAB
0
TABLE
2
UCS
5
7
100
AcDbSymbolTable
70
0
0
ENDTAB
0
TABLE
2
APPID
5
9
100
AcDbSymbolTable
70
2
0
APPID
5
12
100
AcDbSymbolTableRecord
100
AcDbRegAppTableRecord
2
ACAD
70
0
0
ENDTAB
0
TABLE
2
DIMSTYLE
5
A
100
AcDbSymbolTable
70
1
0
ENDTAB
0
TABLE
2
BLOCK_RECORD
5
1
100
AcDbSymbolTable
70
1
0
BLOCK_RECORD
5
1F
100
AcDbSymbolTableRecord
100
AcDbBlockTableRecord
2
*MODEL_SPACE
0
BLOCK_RECORD
5
1B
100
AcDbSymbolTableRecord
100
AcDbBlockTableRecord
2
*PAPER_SPACE
0
ENDTAB
0
ENDSEC
0
SECTION
2
BLOCKS
0
BLOCK
5
20
100
AcDbEntity
100
AcDbBlockBegin
2
*MODEL_SPACE
0
ENDBLK
5
21
100
AcDbEntity
100
AcDbBlockEnd
0
BLOCK
5
1C
100
AcDbEntity
100
AcDbBlockBegin
2
*PAPER_SPACE
0
ENDBLK
5
1D
100
AcDbEntity
100
AcDbBlockEnd
0
ENDSEC
0
SECTION
2
ENTITIES
0
LWPOLYLINE
5
100
100
AcDbEntity
8
0
100
AcDbPolyline
90
2
70
1
43
0.0
10
-72.705101900664658
20
-937.48828821814971
42
0.0081759691068755049
10
-73.061754268870502
20
-937.64884411000048
42
0.019563756744532774
0
LWPOLYLINE
5
101
100
AcDbEntity
8
0
100
AcDbPolyline
90
2
70
1
43
0.0
10
-70.458925678598007
20
-935.24223775974428
42
0.019563756744637211
10
-70.29834981744483
20
-934.88559438188531
42
0.0081759691071471591
0
CIRCLE
5
102
100
AcDbEntity
8
0
100
AcDbCircle
10
-74.934343492812332
20
-933.01274557792578
30
0
40
3.2385000000000108
210
0
220
-0
230
1
0
LWPOLYLINE
5
103
100
AcDbEntity
8
0
100
AcDbPolyline
90
2
70
1
43
0.0
10
-73.063723779748329
20
-1078.3491104374493
42
0.0081759691071132019
10
-72.707075906578794
20
-1078.5096763140189
42
0.019563756744821924
0
LWPOLYLINE
5
104
100
AcDbEntity
8
0
100
AcDbPolyline
90
2
70
1
43
0.0
10
-70.300396688895162
20
-1081.1124375283027
42
0.019563756744858871
10
-70.460962565455461
20
-1080.7557896551277
42
0.0081759691071395177
0
CIRCLE
5
105
100
AcDbEntity
8
0
100
AcDbCircle
10
-74.936442794384476
20
-1082.9851565429383
30
0
40
3.2385000000000108
210
-0
220
0
230
1
0
ARC
5
106
100
AcDbEntity
8
0
100
AcDbCircle
10
71.43644279438459
20
-1079.4851565429385
30
0
40
9.9999999999998579
210
0
220
0
230
1
100
AcDbArc
50
-90.000000000000654
51
0
0
ARC
5
107
100
AcDbEntity
8
0
100
AcDbCircle
10
71.434441479582688
20
-936.51284356204997
30
0
40
9.9999999999998437
210
0
220
-0
230
1
100
AcDbArc
50
0.0016040432425732973
51
90.001604043318252
0
ARC
5
108
100
AcDbEntity
8
0
100
AcDbCircle
10
-71.434441479582688
20
-936.51284356204997
30
0
40
9.9999999999999076
210
0
220
-0
230
1
100
AcDbArc
50
89.998395956681662
51
179.99839595675743
0
ARC
5
109
100
AcDbEntity
8
0
100
AcDbCircle
10
-71.436442794384632
20
-1079.4851565429385
30
0
40
9.9999999999998046
210
0
220
0
230
1
100
AcDbArc
50
180
51
270.00000000000091
0
LWPOLYLINE
5
110
100
AcDbEntity
8
0
100
AcDbPolyline
90
2
70
1
43
0.0
10
73.061754268870558
20
-937.64884411000048
42
0.0081759691071115036
10
72.705101900664658
20
-937.48828821814971
42
0.019563756744820502
0
LWPOLYLINE
5
111
100
AcDbEntity
8
0
100
AcDbPolyline
90
2
70
1
43
0.0
10
70.29834981744483
20
-934.88559438188531
42
0.019563756744855672
10
70.458925678598007
20
-935.24223775974428
42
0.0081759691071378211
0
CIRCLE
5
112
100
AcDbEntity
8
0
100
AcDbCircle
10
74.93434349278067
20
-933.01274557799161
30
0
40
3.2385000000000108
210
0
220
0
230
1
0
LWPOLYLINE
5
113
100
AcDbEntity
8
0
100
AcDbPolyline
90
2
70
1
43
0.0
10
72.707075906578794
20
-1078.5096763140189
42
0.008175969107070755
10
73.063723779748315
20
-1078.3491104374493
42
0.019563756745210898
0
LWPOLYLINE
5
114
100
AcDbEntity
8
0
100
AcDbPolyline
90
2
70
1
43
0.0
10
70.460962565455461
20
-1080.7557896551277
42
0.019563756745154058
10
70.300396688895162
20
-1081.1124375283027
42
0.0081759691071828129
0
CIRCLE
5
115
100
AcDbEntity
8
0
100
AcDbCircle
10
74.936442794342511
20
-1082.9851565428478
30
0
40
3.2385000000000108
210
0
220
0
230
1
0
LWPOLYLINE
5
116
100
AcDbEntity
8
0
100
AcDbPolyline
90
8
70
1
43
0.0
10
30.498982578509132
20
-949.55401103172505
10
30.498982578509185
20
-1035.0122260666096
10
-30.420379206817604
20
-1035.0122260666096
10
-30.420379206817593
20
-1014.7310774823975
42
0.28301219192612476
10
-30.420379206817575
20
-1013.5781672236168
10
-30.420379206817586
20
-990.83107748239752
42
0.28301219192612248
10
-30.420379206817568
20
-989.67816722361681
10
-30.420379206817575
20
-949.55401103172505
0
LWPOLYLINE
5
117
100
AcDbEntity
8
0
100
AcDbPolyline
90
8
70
1
43
0.0
10
-90.019669530480414
20
-946.85941529495256
10
-90.010005856932935
20
-1069.1357960086516
42
0.41391400458693489
10
-61.140755774213915
20
-1098.0194984617558
10
61.135967076932765
20
-1098.0098347855574
42
0.41391400459590255
10
90.019669527829095
20
-1069.1405847050451
10
90.010005856932921
20
-946.8642039913484
42
0.41391400458693489
10
61.140755774213929
20
-917.9805015382442
10
-61.135967076933412
20
-917.99016521179112
42
0.41391400459590044
0
ENDSEC
0
SECTION
2
OBJECTS
0
DICTIONARY
5
C
100
AcDbDictionary
3
ACAD_GROUP
350
D
3
ACAD_MLINESTYLE
350
17
0
DICTIONARY
5
D
100
AcDbDictionary
0
DICTIONARY
5
1A
330
C
100
AcDbDictionary
0
DICTIONARY
5
17
100
AcDbDictionary
0
ENDSEC
0
EOF
